<svg width="19" height="24" viewBox="0 0 19 24" fill="none" xmlns="http://www.w3.org/2000/svg">
<path d="M8.33296 14.9163L1.42046 14.0413C0.934347 13.983 0.618375 13.7205 0.472541 13.2538C0.326708 12.7872 0.428791 12.3886 0.778791 12.058L12.708 0.624674C12.8052 0.527452 12.9218 0.454536 13.058 0.405924C13.1941 0.357313 13.3788 0.333008 13.6121 0.333008C14.001 0.333008 14.2975 0.498286 14.5017 0.828841C14.7059 1.1594 14.7107 1.49967 14.5163 1.84967L10.6663 9.08301L17.5788 9.95801C18.0649 10.0163 18.3809 10.2788 18.5267 10.7455C18.6725 11.2122 18.5705 11.6108 18.2205 11.9413L6.29129 23.3747C6.19407 23.4719 6.0774 23.5448 5.94129 23.5934C5.80518 23.642 5.62046 23.6663 5.38713 23.6663C4.99824 23.6663 4.70171 23.5011 4.49754 23.1705C4.29337 22.84 4.28851 22.4997 4.48296 22.1497L8.33296 14.9163ZM10.1413 16.4622L14.8371 11.9705L6.99129 10.9788L8.82879 7.56634L4.16212 12.058L11.9788 13.0205L10.1413 16.4622Z" fill="#172533"/>
</svg>
