<svg width="19" height="22" viewBox="0 0 19 22" fill="none" xmlns="http://www.w3.org/2000/svg">
<path d="M9.50033 21.6669C6.89477 21.6669 4.68783 20.7628 2.87949 18.9544C1.07116 17.1461 0.166992 14.9391 0.166992 12.3336C0.166992 10.1364 0.818381 8.02664 2.12116 6.00442C3.42394 3.98219 5.21283 2.21275 7.48782 0.696083C7.9156 0.404417 8.35796 0.389833 8.81491 0.652333C9.27185 0.914833 9.50033 1.30858 9.50033 1.83358V3.35025C9.50033 4.01136 9.7288 4.56553 10.1857 5.01275C10.6427 5.45997 11.2017 5.68358 11.8628 5.68358C12.1934 5.68358 12.5094 5.61067 12.8107 5.46483C13.1121 5.319 13.3795 5.10997 13.6128 4.83775C13.7684 4.64331 13.9677 4.52178 14.2107 4.47317C14.4538 4.42456 14.6823 4.47803 14.8962 4.63358C16.1212 5.50858 17.0837 6.62664 17.7837 7.98775C18.4837 9.34886 18.8337 10.7975 18.8337 12.3336C18.8337 14.9391 17.9295 17.1461 16.1212 18.9544C14.3128 20.7628 12.1059 21.6669 9.50033 21.6669ZM2.50033 12.3336C2.50033 13.3447 2.70449 14.3023 3.11283 15.2065C3.52116 16.1107 4.10449 16.903 4.86283 17.5836C4.84338 17.4864 4.83366 17.3989 4.83366 17.3211V17.0586C4.83366 16.4364 4.95033 15.853 5.18366 15.3086C5.41699 14.7641 5.75727 14.2683 6.20449 13.8211L9.50033 10.5836L12.7962 13.8211C13.2434 14.2683 13.5837 14.7641 13.817 15.3086C14.0503 15.853 14.167 16.4364 14.167 17.0586V17.3211C14.167 17.3989 14.1573 17.4864 14.1378 17.5836C14.8962 16.903 15.4795 16.1107 15.8878 15.2065C16.2962 14.3023 16.5003 13.3447 16.5003 12.3336C16.5003 11.3614 16.3205 10.4426 15.9607 9.57733C15.601 8.71206 15.0809 7.93914 14.4003 7.25858C14.0114 7.51136 13.6031 7.70094 13.1753 7.82733C12.7475 7.95372 12.31 8.01692 11.8628 8.01692C10.6573 8.01692 9.61213 7.61831 8.72741 6.82108C7.84269 6.02386 7.33227 5.04192 7.19616 3.87525C5.67949 5.15858 4.51769 6.52456 3.71074 7.97317C2.9038 9.42178 2.50033 10.8753 2.50033 12.3336ZM9.50033 13.8503L7.83783 15.4836C7.62394 15.6975 7.45866 15.9405 7.34199 16.2128C7.22533 16.485 7.16699 16.7669 7.16699 17.0586C7.16699 17.6808 7.39546 18.2155 7.85241 18.6628C8.30935 19.11 8.85866 19.3336 9.50033 19.3336C10.142 19.3336 10.6913 19.11 11.1482 18.6628C11.6052 18.2155 11.8337 17.6808 11.8337 17.0586C11.8337 16.7475 11.7753 16.4607 11.6587 16.1982C11.542 15.9357 11.3767 15.6975 11.1628 15.4836L9.50033 13.8503Z" fill="#172533"/>
</svg>
