<svg width="71" height="71" viewBox="0 0 71 71" fill="none" xmlns="http://www.w3.org/2000/svg">
<path d="M35.5 71C55.1061 71 71 55.1061 71 35.5C71 15.8939 55.1061 0 35.5 0C15.8939 0 0 15.8939 0 35.5C0 55.1061 15.8939 71 35.5 71Z" fill="#0088CC"/>
<path fill-rule="evenodd" clip-rule="evenodd" d="M25.6107 23.4553H45.5161C46.2768 23.4553 46.9107 23.5821 47.6716 23.9624C48.5591 24.3428 49.0661 24.9767 49.3198 25.4838C49.3198 25.4838 49.3198 25.6106 49.4466 25.6106C49.827 26.2445 50.0804 27.0052 50.0804 27.8927C50.0804 28.6534 49.9536 29.4141 49.4466 30.1748L36.8948 51.7284C36.6411 52.2355 36.1341 52.4891 35.5002 52.4891C34.9931 52.4891 34.4859 52.2355 34.1056 51.7284L21.8071 30.1749C21.5535 29.6678 21.0464 29.0338 21.0464 28.0195C20.9196 27.132 21.1732 26.3713 21.5535 25.6106C21.9339 24.8499 22.5678 24.216 23.4553 23.9624C24.2161 23.4553 25.1036 23.4553 25.6107 23.4553ZM33.9786 26.4981H25.6107C25.1036 26.4981 24.85 26.4981 24.7232 26.6249C24.4696 26.7517 24.3428 26.8785 24.2161 27.132C24.0893 27.2588 24.0893 27.5124 24.0893 27.7659C24.0893 27.8927 24.2161 28.0195 24.4698 28.5266L33.9786 45.0087V26.4981ZM37.0214 26.4981V45.1356L46.6571 28.5267C46.7839 28.2731 46.7839 28.0196 46.7839 27.766C46.7839 27.5124 46.7839 27.2589 46.6571 27.1321C46.5303 27.0053 46.5303 26.8785 46.4035 26.8785L46.2767 26.7517C46.0231 26.6249 45.7696 26.6249 45.3892 26.6249H37.0213L37.0214 26.4981Z" fill="white"/>
</svg>
