<svg width="18" height="20" viewBox="0 0 18 20" fill="none" xmlns="http://www.w3.org/2000/svg">
<path d="M0 16V13.2C0 12.6333 0.145833 12.1125 0.4375 11.6375C0.729167 11.1625 1.11667 10.8 1.6 10.55C2.63333 10.0333 3.68333 9.64583 4.75 9.3875C5.81667 9.12917 6.9 9 8 9C8.33333 9 8.66667 9.0125 9 9.0375C9.33333 9.0625 9.66667 9.1 10 9.15V11.175C9.66667 11.1083 9.33333 11.0625 9 11.0375C8.66667 11.0125 8.33333 11 8 11C7.06667 11 6.14167 11.1125 5.225 11.3375C4.30833 11.5625 3.4 11.9 2.5 12.35C2.35 12.4333 2.22917 12.55 2.1375 12.7C2.04583 12.85 2 13.0167 2 13.2V14H10V16H0ZM8 8C6.9 8 5.95833 7.60833 5.175 6.825C4.39167 6.04167 4 5.1 4 4C4 2.9 4.39167 1.95833 5.175 1.175C5.95833 0.391667 6.9 0 8 0C9.1 0 10.0417 0.391667 10.825 1.175C11.6083 1.95833 12 2.9 12 4C12 5.1 11.6083 6.04167 10.825 6.825C10.0417 7.60833 9.1 8 8 8ZM8 6C8.55 6 9.02083 5.80417 9.4125 5.4125C9.80417 5.02083 10 4.55 10 4C10 3.45 9.80417 2.97917 9.4125 2.5875C9.02083 2.19583 8.55 2 8 2C7.45 2 6.97917 2.19583 6.5875 2.5875C6.19583 2.97917 6 3.45 6 4C6 4.55 6.19583 5.02083 6.5875 5.4125C6.97917 5.80417 7.45 6 8 6ZM14 20V15H12V9H18L16 13H18L14 20Z" fill="#172533"/>
</svg>
